<?xml version="1.0" standalone="no"?>
<!DOCTYPE svg PUBLIC "-//W3C//DTD SVG 20010904//EN"
 "http://www.w3.org/TR/2001/REC-SVG-20010904/DTD/svg10.dtd">
<svg version="1.0" xmlns="http://www.w3.org/2000/svg"
 width="200.000000pt" height="200.000000pt" viewBox="0 0 200.000000 200.000000"
 preserveAspectRatio="xMidYMid meet">
<metadata>
Created by potrace 1.14, written by Peter Selinger 2001-2017
</metadata>
<g transform="translate(0.000000,200.000000) scale(0.100000,-0.100000)"
fill="#000000" stroke="none">
<path d="M845 1984 c-280 -68 -476 -220 -593 -464 -59 -122 -72 -195 -69 -370
3 -144 5 -161 34 -242 17 -48 48 -115 68 -148 28 -47 235 -320 413 -547 9 -12
49 -62 87 -112 57 -74 71 -87 75 -70 3 11 5 119 5 240 0 188 2 220 15 223 26
7 268 1 275 -6 4 -4 8 -32 10 -63 1 -30 5 -58 8 -62 11 -10 129 27 212 68 175
86 302 213 385 384 49 102 64 150 77 246 56 412 -207 802 -613 910 -102 27
-302 34 -389 13z m140 -536 l1 -260 -39 -25 c-46 -29 -70 -80 -64 -134 6 -52
51 -108 89 -110 88 -5 110 0 144 37 30 31 34 42 34 91 0 49 -4 59 -32 87 -18
18 -41 37 -51 43 -17 9 -18 28 -17 273 0 145 2 266 4 268 6 6 24 -31 29 -59 9
-46 89 -255 125 -324 41 -81 105 -187 138 -231 29 -37 29 -39 5 -72 -38 -54
-150 -288 -171 -358 l-12 -39 -154 -2 c-111 -1 -154 2 -155 10 -3 52 -86 233
-177 387 l-21 35 66 100 c82 124 137 241 197 414 25 74 46 137 46 139 0 3 3 2
7 -2 4 -4 8 -124 8 -268z m232 -860 c17 -13 17 -44 1 -55 -16 -9 -343 -12
-378 -3 -14 4 -26 14 -28 24 -7 33 15 43 95 45 43 1 78 3 79 4 8 8 221 -6 231
-15z"/>
</g>
</svg>
